<svg width="24" height="27" viewBox="0 0 24 27" fill="none" xmlns="http://www.w3.org/2000/svg">
<path d="M2 10.4453C2 8.2974 3.84556 6.6126 5.99277 6.66748C7.7117 6.7114 9.63554 6.68434 11 6.44531C12.9361 6.10613 15.0204 5.12545 16.4063 4.3768C17.1052 3.99927 18 4.49805 18 5.29238V15.5982C18 16.3926 17.1052 16.8914 16.4063 16.5138C15.0204 15.7652 12.9361 14.7845 11 14.4453C9.63554 14.2063 7.7117 14.1792 5.99277 14.2231C3.84555 14.278 2 12.5932 2 10.4453V10.4453Z" stroke="#1F1F22" stroke-width="1.5"/>
<path d="M7.16729 17.8343L11.1563 24.1028C11.6935 24.9469 13 24.5664 13 23.5659V17.8673C13 17.3696 12.6341 16.9477 12.1414 16.8773L8.15237 16.3075C7.3066 16.1867 6.70861 17.1135 7.16729 17.8343Z" stroke="#1F1F22" stroke-width="1.5"/>
<path d="M18 13.4453C19.6569 13.4453 21 12.1022 21 10.4453C21 8.78846 19.6569 7.44531 18 7.44531V13.4453Z" stroke="#1F1F22" stroke-width="1.5"/>
</svg>
