<svg width="81" height="82" viewBox="0 0 81 82" fill="none" xmlns="http://www.w3.org/2000/svg">
<rect x="0.475576" y="1.1328" width="80.0484" height="80.0494" rx="40.0242" fill="#F4F5FA"/>
<path d="M33.2854 41.0637L34.4438 40.2363L33.467 38.8689L32.2788 40.0571L33.2854 41.0637ZM40.4032 51.0287L39.2448 51.8561L40.2857 53.3134L41.4706 51.9705L40.4032 51.0287ZM63.1773 26.7393C63.1283 25.9546 62.4524 25.3583 61.6677 25.4073L48.8806 26.2065C48.096 26.2556 47.4996 26.9315 47.5487 27.7161C47.5977 28.5008 48.2736 29.0972 49.0582 29.0481L60.4245 28.3377L61.1349 39.704C61.184 40.4887 61.8599 41.085 62.6445 41.036C63.4292 40.9869 64.0256 40.3111 63.9765 39.5264L63.1773 26.7393ZM20.0564 56.3059L34.292 42.0703L32.2788 40.0571L18.0432 54.2927L20.0564 56.3059ZM32.127 41.8912L39.2448 51.8561L41.5616 50.2012L34.4438 40.2363L32.127 41.8912ZM41.4706 51.9705L62.824 27.77L60.6891 25.8863L39.3357 50.0868L41.4706 51.9705Z" fill="#222222"/>
<rect x="0.475576" y="1.1328" width="80.0484" height="80.0494" rx="40.0242" stroke="#E1E2E9" stroke-width="0.808575"/>
</svg>
