<svg width="81" height="76" viewBox="0 0 81 76" fill="none" xmlns="http://www.w3.org/2000/svg">
<path d="M67.3546 73.9558H7.37134C3.85256 73.9558 1 71.1033 1 67.5845V7.60175C1 4.083 3.85256 1.23047 7.37134 1.23047H67.3546C70.8734 1.23047 73.726 4.083 73.726 7.60175V67.5845C73.726 71.1033 70.8734 73.9558 67.3546 73.9558Z" fill="#F4F4FA"/>
<path d="M67.3546 73.9558H7.37134C3.85256 73.9558 1 71.1033 1 67.5845V7.60175C1 4.083 3.85256 1.23047 7.37134 1.23047H67.3546C70.8734 1.23047 73.726 4.083 73.726 7.60175V67.5845C73.726 71.1033 70.8734 73.9558 67.3546 73.9558Z" stroke="#8A85FF" stroke-width="1.37224" stroke-miterlimit="10"/>
<path d="M80.9974 69.4185C80.9974 72.9593 78.1273 75.8293 74.5866 75.8293C71.0458 75.8293 68.1758 72.9593 68.1758 69.4185C68.1758 65.8778 71.0458 63.0078 74.5866 63.0078C78.1273 63.0078 80.9974 65.8778 80.9974 69.4185Z" fill="#8A85FF"/>
<path d="M77.7464 69.4199H71.4375" stroke="white" stroke-width="1.7153" stroke-miterlimit="10" stroke-linecap="round"/>
<path d="M74.5889 66.2651V72.5743" stroke="white" stroke-width="1.7153" stroke-miterlimit="10" stroke-linecap="round"/>
<path d="M18.2787 10.2942C18.2787 12.4953 16.494 14.2799 14.293 14.2799C12.0919 14.2799 10.3076 12.4953 10.3076 10.2942C10.3076 8.09318 12.0919 6.30859 14.293 6.30859C16.494 6.30859 18.2787 8.09318 18.2787 10.2942Z" fill="#E7E8F0"/>
<path d="M60.7863 50.1447H13.9463C11.6893 50.1447 9.85938 48.3148 9.85938 46.0578V21.0732C9.85938 18.8162 11.6893 16.9863 13.9463 16.9863H60.7863C63.0433 16.9863 64.8731 18.8162 64.8731 21.0732V46.0578C64.8731 48.3148 63.0433 50.1447 60.7863 50.1447Z" fill="#E8EAFF"/>
<path d="M45.6454 26.6952C45.6454 28.393 44.2691 29.7697 42.5712 29.7697C40.8734 29.7697 39.4971 28.393 39.4971 26.6952C39.4971 24.9974 40.8734 23.6211 42.5712 23.6211C44.2691 23.6211 45.6454 24.9974 45.6454 26.6952Z" fill="#6E71BE"/>
<path d="M30.0768 31.3529C31.5458 29.5738 34.2724 29.5738 35.7414 31.3529L42.085 39.0343L50.6917 49.4564C50.9185 49.7309 50.7233 50.1453 50.3672 50.1453H32.9091H15.4511C15.095 50.1453 14.8998 49.7309 15.1265 49.4564L23.7332 39.0343L30.0768 31.3529Z" fill="#6E71BE"/>
<path d="M39.7389 33.593C41.2079 32.0263 43.9346 32.0263 45.4035 33.593L51.7471 40.3578L60.3538 49.5353C60.5806 49.7772 60.3854 50.1422 60.0293 50.1422H42.5712H25.1132C24.7571 50.1422 24.5619 49.7772 24.7886 49.5353L33.3954 40.3578L39.7389 33.593Z" fill="#A0A3DB"/>
<path d="M40.8314 56.8633C40.8314 58.0151 39.8962 58.9503 38.7444 58.9503H10.6397C9.48791 58.9503 8.55273 58.0151 8.55273 56.8633C8.55273 55.7115 9.48791 54.7764 10.6397 54.7764H38.7444C39.8962 54.7764 40.8314 55.7115 40.8314 56.8633Z" fill="#C4C6D7" fill-opacity="0.5"/>
<path d="M62.1887 10.2081C62.1887 11.3599 61.2535 12.295 60.1017 12.295H24.3448C23.193 12.295 22.2578 11.3599 22.2578 10.2081C22.2578 9.05626 23.193 8.12109 24.3448 8.12109H60.1017C61.2535 8.12109 62.1887 9.05626 62.1887 10.2081Z" fill="#C4C6D7" fill-opacity="0.5"/>
<path d="M66.0143 65.8672C66.0143 67.019 65.0791 67.9542 63.9273 67.9542H10.6397C9.48791 67.9542 8.55273 67.019 8.55273 65.8672C8.55273 64.7154 9.48791 63.7803 10.6397 63.7803H63.9273C65.0791 63.7803 66.0143 64.7154 66.0143 65.8672Z" fill="#C4C6D7" fill-opacity="0.5"/>
<path d="M40.8314 56.8633C40.8314 58.0151 39.8962 58.9503 38.7444 58.9503H10.6397C9.48791 58.9503 8.55273 58.0151 8.55273 56.8633C8.55273 55.7115 9.48791 54.7764 10.6397 54.7764H38.7444C39.8962 54.7764 40.8314 55.7115 40.8314 56.8633Z" fill="url(#paint0_radial_3186_16306)" fill-opacity="0.5"/>
<path d="M62.1887 10.2081C62.1887 11.3599 61.2535 12.295 60.1017 12.295H24.3448C23.193 12.295 22.2578 11.3599 22.2578 10.2081C22.2578 9.05626 23.193 8.12109 24.3448 8.12109H60.1017C61.2535 8.12109 62.1887 9.05626 62.1887 10.2081Z" fill="url(#paint1_radial_3186_16306)" fill-opacity="0.5"/>
<path d="M66.0143 65.8672C66.0143 67.019 65.0791 67.9542 63.9273 67.9542H10.6397C9.48791 67.9542 8.55273 67.019 8.55273 65.8672C8.55273 64.7154 9.48791 63.7803 10.6397 63.7803H63.9273C65.0791 63.7803 66.0143 64.7154 66.0143 65.8672Z" fill="url(#paint2_radial_3186_16306)" fill-opacity="0.5"/>
<path d="M40.8314 56.8633C40.8314 58.0151 39.8962 58.9503 38.7444 58.9503H10.6397C9.48791 58.9503 8.55273 58.0151 8.55273 56.8633C8.55273 55.7115 9.48791 54.7764 10.6397 54.7764H38.7444C39.8962 54.7764 40.8314 55.7115 40.8314 56.8633Z" fill="url(#paint3_radial_3186_16306)" fill-opacity="0.5"/>
<path d="M62.1887 10.2081C62.1887 11.3599 61.2535 12.295 60.1017 12.295H24.3448C23.193 12.295 22.2578 11.3599 22.2578 10.2081C22.2578 9.05626 23.193 8.12109 24.3448 8.12109H60.1017C61.2535 8.12109 62.1887 9.05626 62.1887 10.2081Z" fill="url(#paint4_radial_3186_16306)" fill-opacity="0.5"/>
<path d="M66.0143 65.8672C66.0143 67.019 65.0791 67.9542 63.9273 67.9542H10.6397C9.48791 67.9542 8.55273 67.019 8.55273 65.8672C8.55273 64.7154 9.48791 63.7803 10.6397 63.7803H63.9273C65.0791 63.7803 66.0143 64.7154 66.0143 65.8672Z" fill="url(#paint5_radial_3186_16306)" fill-opacity="0.5"/>
<defs>
<radialGradient id="paint0_radial_3186_16306" cx="0" cy="0" r="1" gradientUnits="userSpaceOnUse" gradientTransform="translate(-86.6136 56.8633) scale(41.7396 41.7392)">
<stop stop-color="#D1D4E0"/>
<stop offset="0.5" stop-color="#E2E4EC"/>
<stop offset="1" stop-color="#F4F5F8"/>
</radialGradient>
<radialGradient id="paint1_radial_3186_16306" cx="0" cy="0" r="1" gradientUnits="userSpaceOnUse" gradientTransform="translate(-69.0824 10.2081) scale(41.7396 41.7392)">
<stop stop-color="#D1D4E0"/>
<stop offset="0.5" stop-color="#E2E4EC"/>
<stop offset="1" stop-color="#F4F5F8"/>
</radialGradient>
<radialGradient id="paint2_radial_3186_16306" cx="0" cy="0" r="1" gradientUnits="userSpaceOnUse" gradientTransform="translate(-74.0221 65.8672) scale(41.7396 41.7392)">
<stop stop-color="#D1D4E0"/>
<stop offset="0.5" stop-color="#E2E4EC"/>
<stop offset="1" stop-color="#F4F5F8"/>
</radialGradient>
<radialGradient id="paint3_radial_3186_16306" cx="0" cy="0" r="1" gradientUnits="userSpaceOnUse" gradientTransform="translate(-1.93342 59.741) scale(41.7448 41.7444)">
<stop stop-color="#D1D4E0"/>
<stop offset="0.5" stop-color="#E2E4EC"/>
<stop offset="1" stop-color="#F4F5F8"/>
</radialGradient>
<radialGradient id="paint4_radial_3186_16306" cx="0" cy="0" r="1" gradientUnits="userSpaceOnUse" gradientTransform="translate(15.5978 13.0858) scale(41.7448 41.7444)">
<stop stop-color="#D1D4E0"/>
<stop offset="0.5" stop-color="#E2E4EC"/>
<stop offset="1" stop-color="#F4F5F8"/>
</radialGradient>
<radialGradient id="paint5_radial_3186_16306" cx="0" cy="0" r="1" gradientUnits="userSpaceOnUse" gradientTransform="translate(10.658 68.745) scale(41.7448 41.7444)">
<stop stop-color="#D1D4E0"/>
<stop offset="0.5" stop-color="#E2E4EC"/>
<stop offset="1" stop-color="#F4F5F8"/>
</radialGradient>
</defs>
</svg>
