<svg width="64" height="46" viewBox="0 0 64 46" fill="none" xmlns="http://www.w3.org/2000/svg">
<rect x="58.5742" y="45.5703" width="45.5705" height="5.33286" rx="2.66643" transform="rotate(-90 58.5742 45.5703)" fill="#E9EDF7"/>
<rect x="58.5742" y="45.5703" width="10.8668" height="5.33286" rx="2.66643" transform="rotate(-90 58.5742 45.5703)" fill="#2D9AFF"/>
<rect x="44.0547" y="45.5703" width="45.5705" height="5.33281" rx="2.66641" transform="rotate(-90 44.0547 45.5703)" fill="#E9EDF7"/>
<rect x="44.0547" y="45.5703" width="41.364" height="5.33287" rx="2.66643" transform="rotate(-90 44.0547 45.5703)" fill="#2D9AFF"/>
<rect x="29.5371" y="45.5703" width="45.5705" height="5.33286" rx="2.66643" transform="rotate(-90 29.5371 45.5703)" fill="#E9EDF7"/>
<rect x="29.5371" y="45.5703" width="31.5488" height="5.33287" rx="2.66643" transform="rotate(-90 29.5371 45.5703)" fill="#2D9AFF"/>
<rect x="15.0195" y="45.5703" width="45.5705" height="5.33287" rx="2.66644" transform="rotate(-90 15.0195 45.5703)" fill="#E9EDF7"/>
<rect x="15.0195" y="45.5703" width="23.4863" height="5.33287" rx="2.66643" transform="rotate(-90 15.0195 45.5703)" fill="#2D9AFF"/>
<rect x="0.5" y="45.5703" width="45.5705" height="5.33287" rx="2.66644" transform="rotate(-90 0.5 45.5703)" fill="#E9EDF7"/>
<rect x="0.5" y="45.5703" width="37.508" height="5.33288" rx="2.66644" transform="rotate(-90 0.5 45.5703)" fill="#2D9AFF"/>
</svg>
