<svg width="66" height="66" viewBox="0 0 66 66" fill="none" xmlns="http://www.w3.org/2000/svg">
<g clip-path="url(#clip0_2274_10686)">
<path d="M27.8545 13.07H32.3613V17.5768C32.3613 17.8293 32.4616 18.0715 32.6402 18.2501C32.8188 18.4286 33.061 18.529 33.3135 18.529C33.566 18.529 33.8082 18.4286 33.9867 18.2501C34.1653 18.0715 34.2656 17.8293 34.2656 17.5768V13.07H38.6455C38.898 13.07 39.1402 12.9697 39.3188 12.7911C39.4973 12.6125 39.5977 12.3704 39.5977 12.1178C39.5977 11.8653 39.4973 11.6231 39.3188 11.4446C39.1402 11.266 38.898 11.1657 38.6455 11.1657H34.2656V6.7858C34.2656 6.53327 34.1653 6.29109 33.9867 6.11253C33.8082 5.93397 33.566 5.83365 33.3135 5.83365C33.061 5.83365 32.8188 5.93397 32.6402 6.11253C32.4616 6.29109 32.3613 6.53327 32.3613 6.7858V11.1657H27.8545C27.602 11.1657 27.3598 11.266 27.1812 11.4446C27.0027 11.6231 26.9023 11.8653 26.9023 12.1178C26.9023 12.3704 27.0027 12.6125 27.1812 12.7911C27.3598 12.9697 27.602 13.07 27.8545 13.07ZM56.292 26.527H53.4355V19.862C53.4341 18.5998 52.9321 17.3897 52.0396 16.4972C51.1471 15.6047 49.937 15.1026 48.6748 15.1012H44.6755C45.1291 13.3645 45.1785 11.5469 44.82 9.78812C44.4614 8.02932 43.7045 6.37611 42.6073 4.95553C41.51 3.53495 40.1018 2.3848 38.4907 1.59345C36.8795 0.802106 35.1085 0.390625 33.3135 0.390625C31.5185 0.390625 29.7474 0.802106 28.1363 1.59345C26.5252 2.3848 25.1169 3.53495 24.0197 4.95553C22.9225 6.37611 22.1655 8.02932 21.807 9.78812C21.4484 11.5469 21.4978 13.3645 21.9514 15.1012H11.2236C9.45595 15.1012 7.76068 15.8034 6.51074 17.0534C5.2608 18.3033 4.55859 19.9986 4.55859 21.7663V56.8053C4.56115 59.0773 5.46481 61.2554 7.07131 62.8619C8.67782 64.4685 10.856 65.3721 13.1279 65.3747H56.292C57.5542 65.3733 58.7643 64.8712 59.6568 63.9787C60.5493 63.0862 61.0513 61.8761 61.0527 60.6139V31.2878C61.0513 30.0256 60.5493 28.8155 59.6568 27.923C58.7643 27.0305 57.5542 26.5284 56.292 26.527ZM33.3135 2.27896C34.909 2.28105 36.4801 2.67059 37.8917 3.41411C39.3033 4.15762 40.5133 5.23286 41.4175 6.54737C42.3217 7.86188 42.8932 9.37634 43.0827 10.9605C43.2722 12.5447 43.0741 14.1512 42.5055 15.6419C42.482 15.6906 42.4627 15.7413 42.4479 15.7933C41.5807 17.9521 39.9734 19.732 37.9139 20.8141H28.7131C26.6535 19.732 25.0463 17.9521 24.1791 15.7933C24.1642 15.7413 24.1449 15.6906 24.1214 15.6419C23.5528 14.1512 23.3547 12.5447 23.5443 10.9605C23.7338 9.37634 24.3052 7.86188 25.2094 6.54737C26.1137 5.23286 27.3236 4.15762 28.7353 3.41411C30.1469 2.67059 31.718 2.28105 33.3135 2.27896ZM7.85734 18.3999C8.29837 17.9564 8.82298 17.6048 9.40081 17.3655C9.97864 17.1261 10.5982 17.0038 11.2236 17.0055H22.6271C23.2865 18.4521 24.2353 19.7483 25.4148 20.8141H18.8408C18.5883 20.8141 18.3461 20.9144 18.1676 21.093C17.989 21.2716 17.8887 21.5137 17.8887 21.7663C17.8887 22.0188 17.989 22.261 18.1676 22.4395C18.3461 22.6181 18.5883 22.7184 18.8408 22.7184H38.1459L38.1485 22.7185L38.1519 22.7184H47.6592C47.9117 22.7184 48.1539 22.6181 48.3325 22.4395C48.511 22.261 48.6113 22.0188 48.6113 21.7663C48.6113 21.5137 48.511 21.2716 48.3325 21.093C48.1539 20.9144 47.9117 20.8141 47.6592 20.8141H41.2121C42.3917 19.7483 43.3404 18.4521 43.9999 17.0055H48.6748C49.4321 17.0064 50.1582 17.3076 50.6937 17.8431C51.2292 18.3786 51.5304 19.1047 51.5312 19.862V26.527H11.2236C10.282 26.527 9.36159 26.2478 8.57869 25.7247C7.79578 25.2015 7.18559 24.458 6.82526 23.5881C6.46494 22.7182 6.37067 21.7609 6.55438 20.8374C6.73809 19.9139 7.19152 19.0656 7.85734 18.3999ZM59.1484 50.6481H48.7383C47.4925 50.6481 46.2977 50.1532 45.4168 49.2723C44.5359 48.3914 44.041 47.1966 44.041 45.9508C44.041 44.705 44.5359 43.5103 45.4168 42.6294C46.2977 41.7485 47.4925 41.2536 48.7383 41.2536H59.1484V50.6481ZM59.1484 39.3493H48.7383C46.9874 39.3493 45.3083 40.0448 44.0703 41.2828C42.8322 42.5209 42.1367 44.2 42.1367 45.9508C42.1367 47.7017 42.8322 49.3808 44.0703 50.6189C45.3083 51.8569 46.9874 52.5524 48.7383 52.5524H59.1484V60.6139C59.1476 61.3712 58.8464 62.0973 58.3109 62.6328C57.7754 63.1683 57.0493 63.4695 56.292 63.4704H13.1279C11.3609 63.4684 9.66676 62.7655 8.41726 61.516C7.16776 60.2665 6.46491 58.5724 6.46289 56.8053V26.4244C7.08221 27.0599 7.82254 27.5649 8.64021 27.9096C9.45787 28.2542 10.3363 28.4317 11.2236 28.4313H56.292C57.0493 28.4321 57.7754 28.7334 58.3109 29.2689C58.8464 29.8044 59.1476 30.5304 59.1484 31.2878V39.3493ZM47.8496 45.9508C47.8496 46.1392 47.9055 46.3232 48.0101 46.4798C48.1147 46.6364 48.2634 46.7584 48.4374 46.8305C48.6114 46.9026 48.8028 46.9214 48.9875 46.8847C49.1722 46.848 49.3419 46.7573 49.475 46.6241C49.6082 46.491 49.6989 46.3213 49.7356 46.1366C49.7724 45.9519 49.7535 45.7605 49.6814 45.5865C49.6094 45.4125 49.4873 45.2638 49.3307 45.1592C49.1742 45.0545 48.9901 44.9987 48.8018 44.9987C48.5492 44.9987 48.307 45.099 48.1285 45.2776C47.9499 45.4561 47.8496 45.6983 47.8496 45.9508Z" fill="#5585FF"/>
</g>
<defs>
<clipPath id="clip0_2274_10686">
<rect width="65" height="65" fill="white" transform="translate(0.242188 0.390625)"/>
</clipPath>
</defs>
</svg>
