<svg width="56" height="57" viewBox="0 0 56 57" fill="none" xmlns="http://www.w3.org/2000/svg">
<rect x="4" y="4.1792" width="48" height="48" rx="24" fill="#F2F4F7"/>
<path d="M20.998 19.7646C19.3411 19.7646 17.998 21.1077 17.998 22.7646V32.5146C17.998 34.3095 19.4531 35.7646 21.248 35.7646H34.7481C36.543 35.7646 37.9981 34.3095 37.9981 32.5146V24.7646C37.9981 24.2123 37.5504 23.7646 36.9981 23.7646H35.9981V20.7646C35.9981 20.2123 35.5504 19.7646 34.9981 19.7646H20.998ZM20.998 21.7646H33.9981V23.7646H20.998C20.4457 23.7646 19.998 23.3169 19.998 22.7646C19.998 22.2123 20.4457 21.7646 20.998 21.7646ZM20.998 25.7646H35.9981V32.5146C35.9981 33.205 35.4384 33.7646 34.7481 33.7646H21.248C20.5576 33.7646 19.998 33.205 19.998 32.5146L20.0038 25.5887C20.0038 25.5887 20.3618 25.7677 20.998 25.7646ZM32.9981 28.7646C32.4458 28.7646 31.9981 29.2123 31.9981 29.7646C31.9981 30.3169 32.4458 30.7646 32.9981 30.7646C33.5504 30.7646 33.9981 30.3169 33.9981 29.7646C33.9981 29.2123 33.5504 28.7646 32.9981 28.7646Z" fill="black"/>
<rect x="4" y="4.1792" width="48" height="48" rx="24" stroke="#F9FAFB" stroke-width="8"/>
</svg>
