<svg width="199" height="199" viewBox="0 0 199 199" fill="none" xmlns="http://www.w3.org/2000/svg">
<g clip-path="url(#clip0_3465_11163)">
<mask id="mask0_3465_11163" style="mask-type:luminance" maskUnits="userSpaceOnUse" x="0" y="0" width="199" height="199">
<path d="M198.1 0H0V198.1H198.1V0Z" fill="white"/>
</mask>
<g mask="url(#mask0_3465_11163)">
<path d="M93.9058 158.506C142.867 163.461 168.101 151.417 169.607 122.374C171.866 78.8083 133.813 83.5146 122.731 72.0328C111.648 60.5511 124.063 76.8681 102.72 53.0751C88.4911 37.213 69.5309 37.1315 45.8398 52.8314C26.7303 68.3844 24.6635 88.7812 39.6389 114.021C54.6142 139.261 72.703 154.089 93.9058 158.506Z" fill="#EDF1F4"/>
<path d="M32.6737 130.173L31.588 131.259L29.8109 129.481L28.0301 131.261L26.9443 130.176L28.7242 128.395L26.9471 126.618L28.0328 125.531L29.81 127.309L31.5907 125.529L32.6765 126.615L30.8966 128.396L32.6737 130.173Z" fill="#282E41"/>
<path d="M159.475 76.3C156.887 76.3 154.791 74.2007 154.791 71.6129C154.791 69.0251 156.887 66.9258 159.475 66.9258C162.064 66.9258 164.16 69.0251 164.16 71.6129C164.16 74.2007 162.064 76.3 159.475 76.3ZM159.475 73.6286C160.583 73.6286 161.483 72.7273 161.483 71.6129C161.483 70.4985 160.583 69.5972 159.475 69.5972C158.367 69.5972 157.467 70.4985 157.467 71.6129C157.467 72.7273 158.367 73.6286 159.475 73.6286Z" fill="#282E41"/>
<mask id="mask1_3465_11163" style="mask-type:luminance" maskUnits="userSpaceOnUse" x="70" y="49" width="78" height="23">
<path d="M147.605 49.5566H70.5513L70.5068 71.5895H147.56L147.605 49.5566Z" fill="white"/>
</mask>
<g mask="url(#mask1_3465_11163)">
<path d="M71.6544 50.6754C81.5285 50.6754 82.7628 56.5117 82.7628 62.3374V68.6932C82.7628 69.7004 83.5286 70.5187 84.471 70.5187L142.651 70.0127C143.594 70.0127 144.359 69.195 144.359 68.1878V61.3358C144.359 55.0855 139.619 50.0176 133.771 50.0176C133.375 50.0176 71.2409 50.6754 71.6544 50.6754Z" fill="#DEE6EC"/>
<path d="M71.6523 51.7416C71.6523 52.6944 72.4268 53.4677 73.3803 53.4677C133.783 53.4677 133.795 53.4671 133.806 53.4677C137.764 53.4745 140.971 56.7095 140.977 60.703V68.8911H142.686C143.628 68.8911 144.393 68.1197 144.393 67.1687V60.703C144.418 54.7976 139.694 49.9901 133.84 49.9648H133.772H133.134C132.977 49.9741 132.825 49.9994 132.67 50.0161H73.3778C72.425 50.0161 71.6523 50.7887 71.6523 51.7416Z" fill="#DEE6EC"/>
</g>
<mask id="mask2_3465_11163" style="mask-type:luminance" maskUnits="userSpaceOnUse" x="46" y="48" width="96" height="104">
<path d="M141.696 48.4473H46.9033V151.663H141.696V48.4473Z" fill="white"/>
</mask>
<g mask="url(#mask2_3465_11163)">
<path d="M133.774 53.2575V50.0176H72.2535C64.1925 50.0299 57.6608 56.6166 57.6484 64.7442V149.308C57.6484 150.258 58.4137 151.03 59.356 151.03H112.03C120.081 151.005 126.596 144.42 126.602 136.303V60.6927V60.6119C126.652 56.6518 129.847 53.2686 133.774 53.2631C133.79 53.2631 133.804 53.2581 133.82 53.2575H133.774Z" fill="white"/>
<path d="M72.2196 50.0164C64.158 50.0293 57.6256 56.616 57.6133 64.7436V114.251L94.3956 49.9707L72.2196 50.0164Z" fill="#F0F0F0"/>
<path d="M57.6472 84.7096V65.8327C57.6601 57.7045 64.1919 51.1184 72.2535 51.1055H133.773M53.2754 148.685C56.9492 148.685 57.6138 144.782 57.6138 142.315C57.6138 122.143 57.6472 107.884 57.6472 102.768M57.9687 90.4767V92.7447" stroke="#DEE6EC" stroke-width="2.22168" stroke-miterlimit="10" stroke-linecap="round"/>
<path d="M133.772 49.9648H133.135C127.551 50.3049 123.192 54.9673 123.185 60.611V60.7721V136.259C123.174 141.403 119.729 145.893 114.796 147.193C114.256 147.333 113.704 147.402 113.152 147.408V147.409H113.11H113.066H49.2061C51.7696 149.673 55.1231 151.048 58.7969 151.051H58.8197H77.2319H112.03C112.405 151.051 112.985 151.051 113.361 150.994C114.025 150.933 114.683 150.822 115.33 150.661C121.943 149.108 126.627 143.166 126.635 136.317V60.6684V60.5882C126.684 56.8761 129.504 53.8034 133.168 53.4677C133.371 53.4566 133.758 53.4578 133.959 53.4677L133.772 49.9648Z" fill="#DEE6EC"/>
</g>
<mask id="mask3_3465_11163" style="mask-type:luminance" maskUnits="userSpaceOnUse" x="43" y="131" width="71" height="21">
<path d="M113.203 131.939H43.1982V151.352H113.203V131.939Z" fill="white"/>
</mask>
<g mask="url(#mask3_3465_11163)">
<path d="M133.771 49.9629H133.133C127.549 50.3035 123.192 54.9654 123.184 60.6091V60.7701V136.257C123.174 141.401 119.728 145.892 114.795 147.191C113.675 147.483 112.499 147.483 111.379 147.191C106.43 145.873 102.986 141.352 103 136.189V133.892C103.007 132.941 102.247 132.163 101.304 132.158H90.4806H81.7784H68.3625H54.316H45.9205C44.9781 132.158 44.2129 132.93 44.2129 133.881V136.315C44.2055 144.446 50.736 151.042 58.7964 151.049H58.818H77.2301H112.027C112.403 151.049 112.984 151.049 113.36 150.992C114.024 150.931 114.682 150.82 115.329 150.659C121.943 149.106 126.625 143.165 126.633 136.315V60.6671V60.5862C126.682 56.8748 129.503 53.8008 133.168 53.4664C133.38 53.4546 133.592 53.4546 133.805 53.4664C137.763 53.4725 140.971 56.7081 140.977 60.701V68.8897H142.685C143.628 68.8897 144.393 68.1183 144.393 67.1673V60.701C144.418 54.7957 139.693 49.9888 133.84 49.9629H133.771Z" fill="#DEE6EC"/>
</g>
<mask id="mask4_3465_11163" style="mask-type:luminance" maskUnits="userSpaceOnUse" x="0" y="0" width="199" height="199">
<path d="M0 0H198.1V198.1H0V0Z" fill="white"/>
</mask>
<g mask="url(#mask4_3465_11163)">
<mask id="mask5_3465_11163" style="mask-type:luminance" maskUnits="userSpaceOnUse" x="58" y="52" width="70" height="96">
<path d="M127.283 52.3027C123.272 52.3027 71.4325 52.3027 71.4325 52.3027L62.3298 58.7826L58.9355 78.3766V132.221C58.9355 132.221 100.283 132.221 101.518 132.221C102.752 132.221 102.906 133.301 102.906 134.073C102.906 134.844 103.678 147.65 112.78 147.65C121.883 147.65 123.117 139.318 123.117 134.69C123.117 130.061 123.117 61.0969 123.117 59.554C123.117 58.0112 124.969 53.3827 127.283 52.3027Z" fill="white"/>
</mask>
<g mask="url(#mask5_3465_11163)">
<path d="M136.699 122.286C145.763 113.979 146.392 99.9121 138.102 90.8658C129.812 81.819 115.745 81.2192 106.68 89.5257C97.6148 97.8322 96.9853 111.9 105.275 120.946C113.564 129.993 127.634 130.592 136.699 122.286Z" fill="#D9D9D9"/>
<path d="M136.699 122.286C145.763 113.979 146.392 99.9121 138.102 90.8658C129.812 81.819 115.745 81.2192 106.68 89.5257C97.6148 97.8322 96.9853 111.9 105.275 120.946C113.564 129.993 127.634 130.592 136.699 122.286Z" stroke="#D9D9D9" stroke-width="2.22168" stroke-miterlimit="10"/>
</g>
</g>
<path d="M71.4053 117.137H88.1018" stroke="#282E41" stroke-width="2.22168" stroke-miterlimit="10" stroke-linecap="round"/>
<path d="M71.4053 101.586H88.1018" stroke="#282E41" stroke-width="2.22168" stroke-miterlimit="10" stroke-linecap="round"/>
<path d="M71.4043 86.0312H109.25" stroke="#282E41" stroke-width="2.22168" stroke-miterlimit="10" stroke-linecap="round"/>
<path d="M71.4043 69.3711H113.623" stroke="#282E41" stroke-width="2.22168" stroke-miterlimit="10" stroke-linecap="round"/>
<path d="M137.824 115.49C138.988 114.33 140.87 114.332 142.032 115.492L156.712 130.149C157.871 131.305 157.872 133.182 156.715 134.341L156.71 134.346C155.547 135.505 153.665 135.504 152.502 134.343L137.822 119.688C136.663 118.53 136.662 116.654 137.819 115.495L137.824 115.49Z" fill="#282E41"/>
<path d="M140.955 118.52C150.02 110.213 150.648 96.1464 142.359 87.1002C134.069 78.0534 120.001 77.4536 110.937 85.7601C101.872 94.0666 101.242 108.134 109.532 117.181C117.821 126.227 131.89 126.826 140.955 118.52Z" fill="white"/>
<path d="M140.955 118.52C150.02 110.213 150.648 96.1464 142.359 87.1002C134.069 78.0534 120.001 77.4536 110.937 85.7601C101.872 94.0666 101.242 108.134 109.532 117.181C117.821 126.227 131.89 126.826 140.955 118.52Z" stroke="#282E41" stroke-width="2.22168" stroke-miterlimit="10"/>
<path d="M134.156 107.132L132.05 109.237L126.63 103.817L121.251 109.195L119.134 107.079L124.513 101.699L119.093 96.2789L121.198 94.1738L126.618 99.5941L131.997 94.2152L134.114 96.3326L128.735 101.712L134.156 107.132Z" fill="#282E41"/>
</g>
</g>
<defs>
<clipPath id="clip0_3465_11163">
<rect width="198.1" height="198.1" fill="white"/>
</clipPath>
</defs>
</svg>
