<svg width="144" height="144" viewBox="0 0 144 144" fill="none" xmlns="http://www.w3.org/2000/svg">
<path d="M122 85C122 112.614 99.6142 135 72 135C44.3858 135 22 112.614 22 85C22 57.3858 44.3858 35 72 35C99.6142 35 122 57.3858 122 85Z" fill="#F5F5F5"/>
<path d="M102.683 115.534H42.6788C40.9064 115.534 39.4688 114.097 39.4688 112.324V12.2101C39.4688 10.4376 40.9064 9 42.6788 9H102.683C104.456 9 105.893 10.4376 105.893 12.2101V112.324C105.893 114.097 104.456 115.534 102.683 115.534Z" fill="#407BFF"/>
<path d="M102.683 9H94.7539V115.534H102.683C104.456 115.534 105.893 114.097 105.893 112.324V12.2101C105.893 10.4376 104.456 9 102.683 9Z" fill="#2D56B3"/>
<path d="M39.4688 21.4102H105.893V103.124H39.4688V21.4102Z" fill="#D9E5FF"/>
<path d="M97.4361 76.4697C100.442 76.4697 103.301 77.0941 105.893 78.2195V21.4102H94.7539V76.6376C95.6317 76.5268 96.5272 76.4697 97.4361 76.4697Z" fill="#D9E5FF"/>
<path d="M95.3206 68.4696H50.0415C48.9656 68.4696 48.0928 67.5977 48.0928 66.5218V48.1627C48.0928 47.0868 48.9656 46.2148 50.0415 46.2148H95.3206C96.3974 46.2148 97.2693 47.0868 97.2693 48.1627V66.5218C97.2693 67.5977 96.3965 68.4696 95.3206 68.4696Z" fill="#EDEDED"/>
<path d="M95.3202 46.2148H86.1289V68.4696H95.3202C96.3969 68.4696 97.2689 67.5977 97.2689 66.5209V48.1627C97.2689 47.0868 96.3961 46.2148 95.3202 46.2148Z" fill="#EDEDED"/>
<path d="M75.297 13.2832H68.2147C67.2974 13.2832 66.5547 14.0259 66.5547 14.9432C66.5547 15.8596 67.2974 16.6032 68.2147 16.6032H75.297C76.2134 16.6032 76.9561 15.8596 76.9561 14.9432C76.9561 14.0259 76.2134 13.2832 75.297 13.2832Z" fill="#EDEDED"/>
<path d="M64.1217 54.7716C64.0361 54.7716 61.4311 55.6545 61.4311 55.6545L61.5386 53.2434C61.5176 52.6408 61.0652 52.3613 60.5483 52.3613C60.0321 52.3613 59.5798 52.6408 59.5588 53.2434L59.6662 55.6335C59.6662 55.6335 57.0613 54.7724 56.9966 54.7724C56.4159 54.7724 55.9854 55.3104 55.9854 55.8055C55.9854 56.2579 56.1792 56.6448 56.6097 56.7312L58.999 57.4202L57.4918 59.5292C57.3625 59.6803 57.2551 59.8741 57.2551 60.1108C57.2551 60.7134 57.9869 61.0793 58.4175 61.0793C58.6759 61.0793 58.8916 61.0147 59.0637 60.7352L60.5483 58.4961L62.0127 60.7134C62.2276 61.0356 62.507 61.0793 62.7227 61.0793C63.2607 61.0793 63.8423 60.6697 63.8423 60.0672C63.8423 59.8733 63.7776 59.6585 63.6912 59.551L62.1202 57.312L64.4448 56.7304C64.8963 56.6448 65.0902 56.2789 65.0902 55.913C65.091 55.375 64.7033 54.7716 64.1217 54.7716Z" fill="#7CC788"/>
<path d="M77.0797 54.7716C76.9941 54.7716 74.3891 55.6545 74.3891 55.6545L74.4966 53.2434C74.4756 52.6408 74.0232 52.3613 73.5071 52.3613C72.9901 52.3613 72.5378 52.6408 72.5168 53.2434L72.6242 55.6335C72.6242 55.6335 70.0193 54.7724 69.9546 54.7724C69.3739 54.7724 68.9434 55.3104 68.9434 55.8055C68.9434 56.2579 69.1372 56.6448 69.5677 56.7312L71.957 57.4202L70.4498 59.5292C70.3214 59.6803 70.2131 59.8741 70.2131 60.1108C70.2131 60.7134 70.9458 61.0793 71.3763 61.0793C71.6339 61.0793 71.8496 61.0147 72.0217 60.7352L73.5071 58.4961L74.9707 60.7134C75.1856 61.0356 75.4659 61.0793 75.6807 61.0793C76.2195 61.0793 76.8003 60.6697 76.8003 60.0672C76.8003 59.8733 76.7356 59.6585 76.6492 59.551L75.0782 57.312L77.4028 56.7304C77.8552 56.6448 78.049 56.2789 78.049 55.913C78.049 55.375 77.6613 54.7716 77.0797 54.7716Z" fill="#7CC788"/>
<path d="M90.0386 54.7716C89.9521 54.7716 87.348 55.6545 87.348 55.6545L87.4554 53.2434C87.4336 52.6408 86.9821 52.3613 86.4651 52.3613C85.949 52.3613 85.4966 52.6408 85.4748 53.2434L85.5822 55.6335C85.5822 55.6335 82.9781 54.7724 82.9135 54.7724C82.3319 54.7724 81.9014 55.3104 81.9014 55.8055C81.9014 56.2579 82.0952 56.6448 82.5258 56.7312L84.9151 57.4202L83.4086 59.5292C83.2794 59.6803 83.172 59.8741 83.172 60.1108C83.172 60.7134 83.9038 61.0793 84.3343 61.0793C84.5928 61.0793 84.8076 61.0147 84.9797 60.7352L86.4651 58.4961L87.9287 60.7134C88.1444 61.0356 88.4239 61.0793 88.6387 61.0793C89.1775 61.0793 89.7583 60.6697 89.7583 60.0672C89.7583 59.8733 89.6936 59.6585 89.6072 59.551L88.0362 57.312L90.3608 56.7304C90.8132 56.6448 91.007 56.2789 91.007 55.913C91.007 55.375 90.6193 54.7716 90.0386 54.7716Z" fill="#7CC788"/>
</svg>
