<svg width="57" height="56" viewBox="0 0 57 56" fill="none" xmlns="http://www.w3.org/2000/svg">
<circle cx="28.5" cy="28" r="28" fill="url(#paint0_linear_3362_19946)"/>
<path fill-rule="evenodd" clip-rule="evenodd" d="M33.9482 29.3184C35.5466 30.4034 36.6666 31.8734 36.6666 33.8334V37.3334H40.1666C40.8082 37.3334 41.3332 36.8084 41.3332 36.1667V33.8334C41.3332 31.29 37.1682 29.785 33.9482 29.3184Z" fill="white"/>
<path d="M25.0006 27.9993C27.578 27.9993 29.6673 25.91 29.6673 23.3327C29.6673 20.7554 27.578 18.666 25.0006 18.666C22.4233 18.666 20.334 20.7554 20.334 23.3327C20.334 25.91 22.4233 27.9993 25.0006 27.9993Z" fill="white"/>
<path fill-rule="evenodd" clip-rule="evenodd" d="M31.9999 27.9993C34.5782 27.9993 36.6666 25.911 36.6666 23.3327C36.6666 20.7543 34.5782 18.666 31.9999 18.666C31.4516 18.666 30.9382 18.7827 30.4482 18.946C31.4166 20.1477 31.9999 21.676 31.9999 23.3327C31.9999 24.9893 31.4166 26.5177 30.4482 27.7193C30.9382 27.8827 31.4516 27.9993 31.9999 27.9993Z" fill="white"/>
<path fill-rule="evenodd" clip-rule="evenodd" d="M25.0003 29.166C21.8853 29.166 15.667 30.7293 15.667 33.8327V36.166C15.667 36.8077 16.192 37.3327 16.8337 37.3327H33.167C33.8087 37.3327 34.3337 36.8077 34.3337 36.166V33.8327C34.3337 30.7293 28.1153 29.166 25.0003 29.166Z" fill="white"/>
<defs>
<linearGradient id="paint0_linear_3362_19946" x1="0.5" y1="0" x2="56.5" y2="56" gradientUnits="userSpaceOnUse">
<stop stop-color="#2D9AFF"/>
<stop offset="1" stop-color="#1A73E8"/>
</linearGradient>
</defs>
</svg>
