<svg width="57" height="56" viewBox="0 0 57 56" fill="none" xmlns="http://www.w3.org/2000/svg">
<circle cx="28.5" cy="28" r="28" fill="#F4F7FE"/>
<path d="M20.7849 24.3137H21.0586C22.1123 24.3137 22.9743 25.1758 22.9743 26.2295V35.8083C22.9743 36.8619 22.1123 37.724 21.0586 37.724H20.7849C19.7312 37.724 18.8691 36.8619 18.8691 35.8083V26.2295C18.8691 25.1758 19.7312 24.3137 20.7849 24.3137ZM28.448 18.5664C29.5016 18.5664 30.3637 19.4285 30.3637 20.4822V35.8083C30.3637 36.8619 29.5016 37.724 28.448 37.724C27.3943 37.724 26.5322 36.8619 26.5322 35.8083V20.4822C26.5322 19.4285 27.3943 18.5664 28.448 18.5664ZM36.111 29.5136C37.1647 29.5136 38.0268 30.3757 38.0268 31.4294V35.8083C38.0268 36.8619 37.1647 37.724 36.111 37.724C35.0573 37.724 34.1952 36.8619 34.1952 35.8083V31.4294C34.1952 30.3757 35.0573 29.5136 36.111 29.5136Z" fill="#2D9AFF"/>
</svg>
