<svg width="108" height="58" viewBox="0 0 108 58" fill="none" xmlns="http://www.w3.org/2000/svg">
<g opacity="0.24058">
<path d="M3.01348 57.0104C1.44517 57.0104 0.168945 55.7345 0.168945 54.1659V33.3611C0.168945 31.7928 1.44517 30.5166 3.01348 30.5166H104.915C106.484 30.5166 107.76 31.7928 107.76 33.3611V54.1659C107.76 55.7345 106.484 57.0104 104.915 57.0104H3.01348Z" fill="#101010"/>
<path d="M104.908 30.682C106.387 30.682 107.591 31.8855 107.591 33.365V54.1697C107.591 55.6489 106.387 56.8527 104.908 56.8527H3.00608C1.52663 56.8527 0.323095 55.6489 0.323095 54.1697V33.365C0.323095 31.8855 1.52663 30.682 3.00608 30.682H104.908ZM104.908 30.3589H3.00608C1.34569 30.3589 0 31.7049 0 33.365V54.1697C0 55.8298 1.34569 57.1758 3.00608 57.1758H104.908C106.568 57.1758 107.914 55.8298 107.914 54.1697V33.365C107.914 31.7049 106.568 30.3589 104.908 30.3589Z" fill="#888888"/>
<path d="M21.7132 52.6487H5.74422C5.24697 52.6487 4.84375 52.2454 4.84375 51.7482V35.7792C4.84375 35.2816 5.24697 34.8784 5.74422 34.8784H21.7132C22.2108 34.8784 22.614 35.2816 22.614 35.7792V51.7482C22.614 52.2454 22.2108 52.6487 21.7132 52.6487Z" fill="#888888"/>
<path d="M103.432 37.4268H27.4297C26.7367 37.4268 26.1748 36.8649 26.1748 36.1719C26.1748 35.4789 26.7367 34.917 27.4297 34.917H103.432C104.125 34.917 104.687 35.4789 104.687 36.1719C104.687 36.8649 104.125 37.4268 103.432 37.4268Z" fill="#888888"/>
<path d="M87.0395 42.5996H27.3444C26.6985 42.5996 26.1748 42.0759 26.1748 41.43V41.2598C26.1748 40.6139 26.6985 40.0898 27.3444 40.0898H87.0395C87.6854 40.0898 88.2091 40.6139 88.2091 41.2598V41.43C88.2091 42.0759 87.6854 42.5996 87.0395 42.5996Z" fill="#888888"/>
<path d="M53.0292 47.7676H27.4297C26.7367 47.7676 26.1748 47.2058 26.1748 46.5127C26.1748 45.82 26.7367 45.2578 27.4297 45.2578H53.0292C53.7222 45.2578 54.2841 45.82 54.2841 46.5127C54.2841 47.2058 53.7222 47.7676 53.0292 47.7676Z" fill="#888888"/>
<path d="M69.5047 47.7676H58.7676C58.0742 47.7676 57.5127 47.2058 57.5127 46.5127C57.5127 45.82 58.0742 45.2578 58.7676 45.2578H69.5047C70.1981 45.2578 70.7596 45.82 70.7596 46.5127C70.7596 47.2058 70.1981 47.7676 69.5047 47.7676Z" fill="#888888"/>
<path d="M38.813 52.2935H27.4297C26.7367 52.2935 26.1748 51.7316 26.1748 51.0386C26.1748 50.3459 26.7367 49.7837 27.4297 49.7837H38.813C39.506 49.7837 40.0679 50.3459 40.0679 51.0386C40.0679 51.7316 39.506 52.2935 38.813 52.2935Z" fill="#888888"/>
<path d="M55.9351 52.2935H44.5518C43.8587 52.2935 43.2969 51.7316 43.2969 51.0386C43.2969 50.3459 43.8587 49.7837 44.5518 49.7837H55.9351C56.6284 49.7837 57.19 50.3459 57.19 51.0386C57.19 51.7316 56.6284 52.2935 55.9351 52.2935Z" fill="#888888"/>
</g>
<g opacity="0.792511">
<path d="M3.01348 26.6515C1.44517 26.6515 0.168945 25.3756 0.168945 23.807V3.00225C0.168945 1.43394 1.44517 0.157715 3.01348 0.157715H104.915C106.484 0.157715 107.76 1.43394 107.76 3.00225V23.807C107.76 25.3756 106.484 26.6515 104.915 26.6515H3.01348Z" fill="#101010"/>
<path d="M104.908 0.323095C106.387 0.323095 107.591 1.52663 107.591 3.00608V23.8108C107.591 25.2903 106.387 26.4938 104.908 26.4938H3.00608C1.52663 26.4938 0.323095 25.2903 0.323095 23.8108V3.00608C0.323095 1.52663 1.52663 0.323095 3.00608 0.323095H104.908ZM104.908 0H3.00608C1.34569 0 0 1.34602 0 3.00608V23.8108C0 25.4709 1.34569 26.8169 3.00608 26.8169H104.908C106.568 26.8169 107.914 25.4709 107.914 23.8108V3.00608C107.914 1.34602 106.568 0 104.908 0Z" fill="#888888"/>
<path d="M21.7132 22.2898H5.74422C5.24697 22.2898 4.84375 21.8866 4.84375 21.389V5.42032C4.84375 4.92275 5.24697 4.51953 5.74422 4.51953H21.7132C22.2108 4.51953 22.614 4.92275 22.614 5.42032V21.389C22.614 21.8866 22.2108 22.2898 21.7132 22.2898Z" fill="#888888"/>
<path d="M103.432 7.06596H27.4297C26.7367 7.06596 26.1748 6.50409 26.1748 5.81106C26.1748 5.11802 26.7367 4.55615 27.4297 4.55615H103.432C104.125 4.55615 104.687 5.11802 104.687 5.81106C104.687 6.50409 104.125 7.06596 103.432 7.06596Z" fill="#888888"/>
<path d="M87.0395 12.2388H27.3444C26.6985 12.2388 26.1748 11.7151 26.1748 11.0692V10.8989C26.1748 10.2531 26.6985 9.729 27.3444 9.729H87.0395C87.6854 9.729 88.2091 10.2531 88.2091 10.8989V11.0692C88.2091 11.7151 87.6854 12.2388 87.0395 12.2388Z" fill="#888888"/>
<path d="M53.0292 17.4068H27.4297C26.7367 17.4068 26.1748 16.8449 26.1748 16.1519C26.1748 15.4588 26.7367 14.897 27.4297 14.897H53.0292C53.7222 14.897 54.2841 15.4588 54.2841 16.1519C54.2841 16.8449 53.7222 17.4068 53.0292 17.4068Z" fill="#888888"/>
<path d="M69.5047 17.4068H58.7676C58.0742 17.4068 57.5127 16.8449 57.5127 16.1519C57.5127 15.4588 58.0742 14.897 58.7676 14.897H69.5047C70.1981 14.897 70.7596 15.4588 70.7596 16.1519C70.7596 16.8449 70.1981 17.4068 69.5047 17.4068Z" fill="#888888"/>
<path d="M38.813 21.9327H27.4297C26.7367 21.9327 26.1748 21.3708 26.1748 20.6778C26.1748 19.9847 26.7367 19.4229 27.4297 19.4229H38.813C39.506 19.4229 40.0679 19.9847 40.0679 20.6778C40.0679 21.3708 39.506 21.9327 38.813 21.9327Z" fill="#888888"/>
<path d="M55.9351 21.9327H44.5518C43.8587 21.9327 43.2969 21.3708 43.2969 20.6778C43.2969 19.9847 43.8587 19.4229 44.5518 19.4229H55.9351C56.6284 19.4229 57.19 19.9847 57.19 20.6778C57.19 21.3708 56.6284 21.9327 55.9351 21.9327Z" fill="#888888"/>
</g>
<path d="M87.6872 6.59059C90.2252 6.59059 92.6319 7.5993 94.4642 9.43157C96.2515 11.2189 97.2599 13.5675 97.3039 16.0444C97.3468 18.4999 96.4344 20.7887 94.7343 22.4885C93.0768 24.1463 90.8465 25.0594 88.4546 25.0594C85.9167 25.0594 83.5096 24.0503 81.6777 22.2181C78.0031 18.5438 77.8819 12.6864 81.4072 9.16114C83.0647 7.50334 85.295 6.59059 87.6872 6.59059ZM87.6872 4.99902C84.9826 4.99902 82.3096 6.00773 80.2819 8.0358C76.1295 12.1882 76.2506 19.0417 80.5523 23.3437C82.7533 25.5443 85.6214 26.6509 88.4546 26.6509C91.1592 26.6509 93.8322 25.6422 95.8603 23.6142C100.012 19.4617 99.8912 12.6079 95.5895 8.30623C93.3883 6.1053 90.5208 4.99902 87.6872 4.99902Z" fill="white"/>
<path d="M100.647 27.0698L99.32 28.3965L94.5088 23.5856L95.8354 22.2583L100.647 27.0698Z" fill="white"/>
<path d="M107.203 33.805L106.051 34.9578C105.758 35.2502 105.285 35.2502 104.992 34.9578L97.8033 27.7689C97.5109 27.4765 97.5109 27.0026 97.8033 26.7105L98.9564 25.5577C99.2485 25.2653 99.7225 25.2653 100.015 25.5577L107.203 32.7466C107.496 33.0386 107.496 33.5126 107.203 33.805Z" fill="white"/>
</svg>
