<svg width="24" height="24" viewBox="0 0 24 24" fill="none" xmlns="http://www.w3.org/2000/svg">
<path d="M4.99805 3.90625C3.34115 3.90625 1.99805 5.24935 1.99805 6.90625V16.6562C1.99805 18.4511 3.45315 19.9062 5.24805 19.9062H18.7481C20.543 19.9062 21.9981 18.4511 21.9981 16.6562V8.90625C21.9981 8.35395 21.5504 7.90625 20.9981 7.90625H19.9981V4.90625C19.9981 4.35395 19.5504 3.90625 18.9981 3.90625H4.99805ZM4.99805 5.90625H17.9981V7.90625H4.99805C4.44575 7.90625 3.99805 7.45855 3.99805 6.90625C3.99805 6.35395 4.44575 5.90625 4.99805 5.90625ZM4.99805 9.90625H19.9981V16.6562C19.9981 17.3467 19.4384 17.9062 18.7481 17.9062H5.24805C4.55765 17.9062 3.99805 17.3467 3.99805 16.6562L4.00385 9.73035C4.00385 9.73035 4.36185 9.90935 4.99805 9.90625ZM16.9981 12.9062C16.4458 12.9062 15.9981 13.354 15.9981 13.9062C15.9981 14.4585 16.4458 14.9062 16.9981 14.9062C17.5504 14.9062 17.9981 14.4585 17.9981 13.9062C17.9981 13.354 17.5504 12.9062 16.9981 12.9062Z" fill="#1F1F22"/>
</svg>
