<svg width="45" height="45" viewBox="0 0 45 45" fill="none" xmlns="http://www.w3.org/2000/svg">
			<g clip-path="url(#clip0_2274_10644)">
				<mask id="mask0_2274_10644" style="mask-type:luminance" maskUnits="userSpaceOnUse" x="0" y="1" width="45" height="44">
					<path d="M44.2871 1.10352H0.998047V44.3926H44.2871V1.10352Z" fill="white" />
				</mask>
				<g mask="url(#mask0_2274_10644)">
					<path d="M35.1757 10.081L35.3766 10.1317L35.1757 10.1815C33.999 10.4766 33.0791 11.3957 32.784 12.5723L32.7342 12.7733L32.6836 12.5723C32.3891 11.3957 31.4694 10.4766 30.2928 10.1815L30.0918 10.1317L30.2928 10.081C31.4694 9.78597 32.3891 8.86609 32.6836 7.69022L32.7342 7.48926L32.784 7.69022C33.0791 8.86609 33.999 9.78597 35.1757 10.081Z" fill="#FFCF63" />
					<path d="M12.9328 37.9876L13.071 38.0224L12.9328 38.0575C12.1235 38.2599 11.4913 38.892 11.2889 39.7013L11.2539 39.8395L11.2197 39.7013C11.0165 38.892 10.3845 38.2599 9.57587 38.0575L9.4375 38.0224L9.57587 37.9876C10.3845 37.785 11.0165 37.153 11.2197 36.3444L11.2539 36.2061L11.2889 36.3444C11.4913 37.153 12.1235 37.785 12.9328 37.9876Z" fill="#FFCF63" />
					<path d="M37.7661 16.3664L37.8678 16.3923L37.7661 16.4182C37.1724 16.5663 36.7081 17.0308 36.559 17.6252L36.5331 17.727L36.508 17.6252C36.3592 17.0308 35.8947 16.5663 35.3002 16.4182L35.1992 16.3923L35.3002 16.3664C35.8947 16.2174 36.3592 15.7539 36.508 15.1594L36.5331 15.0576L36.559 15.1594C36.7081 15.7539 37.1724 16.2174 37.7661 16.3664Z" fill="#FFCF63" />
					<path d="M9.32882 32.7977L9.42556 32.8222L9.32882 32.8459C8.76375 32.9876 8.32261 33.4288 8.18091 33.9932L8.15703 34.0899L8.13263 33.9932C7.99162 33.4288 7.54978 32.9876 6.98541 32.8459L6.88867 32.8222L6.98541 32.7977C7.54978 32.6561 7.99162 32.2148 8.13263 31.6504L8.15703 31.5537L8.18091 31.6504C8.32261 32.2148 8.76375 32.6561 9.32882 32.7977Z" fill="#FFCF63" />
					<path d="M30.5861 30.9844H15.4822C14.379 30.9844 13.4844 30.0904 13.4844 28.9873V19.2457C13.4844 18.1429 14.379 17.249 15.4822 17.249H30.5861C31.6885 17.249 32.5823 18.1429 32.5823 19.2457V28.9873C32.5823 30.0904 31.6885 30.9844 30.5861 30.9844Z" fill="#B8E986" />
					<path d="M29.6061 19.554C29.6061 23.0972 26.7337 25.969 23.1902 25.969C19.6476 25.969 16.7754 23.0972 16.7754 19.554C16.7754 16.0105 19.6476 13.1387 23.1902 13.1387C26.7337 13.1387 29.6061 16.0105 29.6061 19.554Z" fill="#ECBB35" />
					<path d="M28.006 19.5558C28.006 22.2149 25.8503 24.3709 23.1901 24.3709C20.5308 24.3709 18.375 22.2149 18.375 19.5558C18.375 16.8956 20.5308 14.7402 23.1901 14.7402C25.8503 14.7402 28.006 16.8956 28.006 19.5558Z" fill="#F6E080" />
					<path d="M25.3916 20.5923C25.3916 20.2986 25.3059 20.0524 25.1351 19.8538C24.9628 19.6559 24.7324 19.5253 24.4427 19.4625C24.5225 19.4275 24.5789 19.4018 24.6099 19.386C24.6415 19.3708 24.6972 19.3315 24.7769 19.2687C25.0131 19.0907 25.1314 18.8187 25.1314 18.4533C25.1314 18.1507 25.0268 17.8788 24.8176 17.6384C24.7016 17.509 24.5286 17.4067 24.299 17.3308C24.2306 17.3083 24.1576 17.2902 24.0808 17.2744V16.6797H23.2607V17.2173H22.7113V16.6797H21.8911V17.2173H21.6624H20.9941V18.0994H21.6624V21.0069H20.9941V21.8893H21.6624H21.8911V22.4264H22.7113V21.8893H23.2607V22.4264H24.0808V21.8689C24.5263 21.8212 24.8528 21.6842 25.0576 21.4548C25.2803 21.2057 25.3916 20.9183 25.3916 20.5923ZM23.8619 18.1998C23.9906 18.2668 24.0553 18.4034 24.0553 18.6107C24.0553 18.8183 23.9852 18.9526 23.8446 19.0146C23.7045 19.0776 23.4894 19.1084 23.1996 19.1084H22.7053V18.0994H23.2064C23.5142 18.0994 23.7317 18.1329 23.8619 18.1998ZM24.0921 20.8963C23.9424 20.9701 23.719 21.0069 23.4202 21.0069H22.7053V19.931H23.32C23.6677 19.931 23.9205 19.9655 24.0786 20.0343C24.2366 20.1036 24.3156 20.2462 24.3156 20.4623C24.3156 20.678 24.241 20.8229 24.0921 20.8963Z" fill="#F6E080" />
					<path d="M31.4363 34.3569H15.4822C14.379 34.3569 13.4844 33.4627 13.4844 32.3601V19.1934C13.4844 19.1934 13.5551 19.9078 14.4007 20.3499C14.9268 20.625 15.7802 20.622 16.1826 20.622H31.4363C32.5396 20.622 33.4334 21.5154 33.4334 22.6186V32.3601C33.4334 33.4627 32.5396 34.3569 31.4363 34.3569Z" fill="#834BFE" />
					<path d="M28.0393 29.5921C27.545 29.5921 27.1445 29.1914 27.1445 28.6971V26.2346C27.1445 25.7405 27.545 25.3398 28.0393 25.3398H33.4349V29.5921H28.0393Z" fill="#2ECFF1" />
					<path d="M29.7683 27.464C29.7683 27.9545 29.3701 28.3523 28.8802 28.3523C28.3896 28.3523 27.9922 27.9545 27.9922 27.464C27.9922 26.9734 28.3896 26.5762 28.8802 26.5762C29.3701 26.5762 29.7683 26.9734 29.7683 27.464Z" fill="#F6E080" />
				</g>
			</g>
			<defs>
				<clipPath id="clip0_2274_10644">
					<rect width="43.2891" height="43.2891" fill="white" transform="translate(0.740234 0.712891)" />
				</clipPath>
			</defs>
		</svg>